<?xml version="1.0" encoding="UTF-8" standalone="no"?>
<!-- Created with Inkscape (http://www.inkscape.org/) -->

<svg
   width="0.86710364in"
   height="0.86710364in"
   viewBox="0 0 22.024432 22.024432"
   version="1.1"
   id="svg1"
   xml:space="preserve"
   inkscape:version="1.4.2 (f4327f4, 2025-05-13)"
   sodipodi:docname="assets m.svg"
   xmlns:inkscape="http://www.inkscape.org/namespaces/inkscape"
   xmlns:sodipodi="http://sodipodi.sourceforge.net/DTD/sodipodi-0.dtd"
   xmlns="http://www.w3.org/2000/svg"
   xmlns:svg="http://www.w3.org/2000/svg"><sodipodi:namedview
     id="namedview1"
     pagecolor="#505050"
     bordercolor="#ffffff"
     borderopacity="1"
     inkscape:showpageshadow="0"
     inkscape:pageopacity="0"
     inkscape:pagecheckerboard="1"
     inkscape:deskcolor="#505050"
     inkscape:document-units="mm"
     inkscape:zoom="0.36213173"
     inkscape:cx="1184.6518"
     inkscape:cy="2171.8616"
     inkscape:window-width="1920"
     inkscape:window-height="1009"
     inkscape:window-x="-8"
     inkscape:window-y="-8"
     inkscape:window-maximized="1"
     inkscape:current-layer="layer-MC0"
     showguides="true"><inkscape:page
       x="0"
       y="9.4445969e-15"
       width="22.024431"
       height="22.024431"
       id="page1"
       margin="0"
       bleed="0" /></sodipodi:namedview><defs
     id="defs1"><clipPath
       clipPathUnits="userSpaceOnUse"
       id="clipPath4-1-8-57-7-7"><path
         d="M 0,389 H 1153 V 0 H 0 Z"
         transform="translate(-100.174,-155.30471)"
         id="path4-2-2-5-3-8" /></clipPath></defs><g
     id="layer-MC0"
     inkscape:groupmode="layer"
     inkscape:label="Capa 1"
     transform="matrix(0.26458333,0,0,0.26458333,-261.82754,-808.0511)"><rect
       style="opacity:1;fill:#ffffff;fill-opacity:1;stroke:none;stroke-width:0.619452;stroke-opacity:1"
       id="rect45"
       width="83.241875"
       height="83.241875"
       x="989.58447"
       y="3054.0513"
       ry="15.238125" /><path
       style="fill:#000000;stroke-width:0.072018"
       d="m 1037.1235,3123.3298 c -0.019,-0.019 -0.3258,-0.04 -0.682,-0.047 -0.6595,-0.013 -2.1042,-0.2508 -2.2284,-0.3664 -0.038,-0.035 -0.1272,-0.064 -0.199,-0.064 -0.072,0 -0.1869,-0.032 -0.2557,-0.071 -0.069,-0.039 -0.3195,-0.154 -0.5571,-0.2555 -0.2377,-0.1014 -0.5456,-0.2583 -0.6842,-0.3486 -0.7386,-0.481 -0.8827,-0.5908 -1.2014,-0.9156 -0.1908,-0.1944 -0.3794,-0.3531 -0.419,-0.3525 -0.04,7e-4 -0.2989,0.2102 -0.5761,0.466 -0.2773,0.2557 -0.5316,0.4658 -0.5651,0.467 -0.034,10e-4 -0.1624,0.075 -0.2866,0.164 -0.4666,0.3351 -0.9538,0.5729 -1.633,0.7972 -1.1162,0.3686 -1.3408,0.4102 -2.4126,0.447 -1.0431,0.036 -1.7799,-0.077 -3.2408,-0.4974 -0.3498,-0.1006 -1.6138,-0.7496 -1.86,-0.955 -0.112,-0.093 -0.2256,-0.1699 -0.2525,-0.1699 -0.1326,0 -1.5244,-1.483 -1.5244,-1.6243 0,-0.039 -0.465,-0.8513 -0.5496,-0.9597 -0.012,-0.015 -0.1927,0.037 -0.4021,0.1159 -0.6148,0.2315 -0.9426,0.329 -1.1728,0.349 -0.1189,0.01 -0.4267,0.053 -0.6842,0.096 -0.9526,0.1576 -1.837,0.08 -3.0248,-0.2656 -1.2938,-0.3763 -2.375,-1.0461 -3.1473,-1.9494 -0.6753,-0.79 -0.9131,-1.1737 -1.2705,-2.0498 -0.3358,-0.823 -0.4612,-1.3607 -0.4736,-2.0303 -0.015,-0.8036 -0.014,-0.8015 -0.4939,-0.8613 -0.2267,-0.028 -0.4803,-0.064 -0.5635,-0.079 -0.185,-0.034 -1.2338,-0.4374 -1.433,-0.5513 -0.079,-0.045 -0.2383,-0.1333 -0.3534,-0.1956 -0.1151,-0.062 -0.2654,-0.1618 -0.334,-0.2212 -0.069,-0.059 -0.2822,-0.2197 -0.4748,-0.3561 -0.3383,-0.2396 -0.9562,-0.8822 -1.1784,-1.2255 -0.059,-0.092 -0.1748,-0.2515 -0.2565,-0.3549 -0.2274,-0.2881 -0.6563,-1.2087 -0.9264,-1.9885 -0.3711,-1.0713 -0.3614,-2.8458 0.022,-4.0828 0.119,-0.3839 0.2664,-0.7947 0.3275,-0.9128 l 0.1111,-0.2148 -0.4513,-0.3592 c -0.8413,-0.6694 -1.443,-1.4263 -1.95604,-2.4604 -0.14751,-0.2974 -0.37109,-0.9547 -0.42871,-1.2603 -0.31248,-1.6578 -0.30448,-2.4302 0.0388,-3.745 0.0793,-0.3037 0.23563,-0.6746 0.48564,-1.1523 0.0829,-0.1584 0.19801,-0.3878 0.25581,-0.5098 0.058,-0.122 0.1554,-0.2637 0.2171,-0.3149 0.062,-0.051 0.1122,-0.1212 0.1122,-0.1555 0,-0.089 0.1746,-0.2906 0.8123,-0.9387 l 0.5602,-0.5694 -0.2117,-0.4574 c -0.3652,-0.7889 -0.6465,-2.0375 -0.6529,-2.897 0,-0.5833 0.2265,-2.0188 0.3651,-2.2714 0.051,-0.092 0.1008,-0.2186 0.1112,-0.2805 0.048,-0.2808 0.6014,-1.2873 1.0276,-1.8672 0.233,-0.317 0.9321,-1.009 1.0194,-1.009 0.036,0 0.066,-0.026 0.066,-0.057 0,-0.032 0.1701,-0.185 0.3781,-0.3411 0.2079,-0.1562 0.3953,-0.3073 0.4165,-0.3359 0.1312,-0.1776 2.1633,-0.8921 2.6622,-0.936 l 0.2521,-0.022 0.045,-0.6482 c 0.051,-0.729 0.183,-1.5827 0.2716,-1.7568 0.032,-0.064 0.078,-0.2165 0.1012,-0.3397 0.085,-0.448 0.7103,-1.618 1.0932,-2.0445 1.049,-1.1684 1.6088,-1.6259 2.4856,-2.0317 0.9469,-0.4381 1.2158,-0.5313 2.1606,-0.7486 0.405,-0.093 1.9879,-0.153 2.0629,-0.078 0.027,0.027 0.1981,0.05 0.3797,0.051 0.1815,7e-4 0.4597,0.048 0.6181,0.1048 0.1585,0.057 0.378,0.1052 0.4879,0.107 0.1655,0 0.2073,-0.034 0.2431,-0.2129 0.024,-0.1188 0.064,-0.2161 0.091,-0.2161 0.026,0 0.09,-0.1458 0.143,-0.324 0.053,-0.1783 0.1223,-0.3241 0.1549,-0.3241 0.033,0 0.082,-0.073 0.1097,-0.1621 0.082,-0.2627 0.546,-0.8346 1.2444,-1.5331 0.5127,-0.5129 1.859,-1.4016 2.1231,-1.4016 0.04,0 0.1244,-0.046 0.187,-0.1024 0.1023,-0.092 0.9412,-0.3297 2.0941,-0.593 0.3654,-0.083 1.9519,-0.099 2.5243,-0.024 0.6236,0.081 1.8152,0.3765 2.373,0.5883 0.5415,0.2057 1.4262,0.7497 1.8714,1.1509 0.4152,0.374 0.7212,0.5284 0.7212,0.3636 0,-0.031 0.1702,-0.1849 0.3781,-0.3411 0.208,-0.1561 0.3943,-0.3021 0.4141,-0.3245 0.1214,-0.1368 0.8416,-0.5118 1.1153,-0.5807 0.1788,-0.045 0.3251,-0.1025 0.3251,-0.1278 0,-0.1246 0.9976,-0.3819 1.9836,-0.5117 0.8805,-0.1159 3.1414,0.028 3.3817,0.215 0.04,0.031 0.2578,0.094 0.4849,0.1407 0.2271,0.047 0.4289,0.1107 0.4486,0.1425 0.02,0.032 0.2308,0.1308 0.4693,0.22 0.2385,0.089 0.4337,0.1906 0.4337,0.2254 0,0.035 0.048,0.063 0.1062,0.063 0.1978,0 1.5114,0.9431 1.9643,1.4103 0.2476,0.2553 0.4501,0.4935 0.4501,0.5292 0,0.036 0.024,0.076 0.055,0.089 0.1093,0.048 0.5085,0.6108 0.7322,1.0323 0.1262,0.2376 0.2573,0.4601 0.2914,0.4944 0.071,0.071 0.7223,-0.1564 0.7223,-0.2521 0,-0.034 0.089,-0.063 0.1981,-0.063 0.1089,-8e-4 0.3439,-0.045 0.5222,-0.099 0.4757,-0.1444 1.1115,-0.2188 1.7643,-0.2063 0.3169,0.01 0.5762,0.015 0.5762,0.02 0,0 0.1458,0.025 0.3241,0.045 1.0106,0.111 2.0968,0.489 2.9194,1.0162 0.078,0.05 0.2224,0.1292 0.3214,0.1765 0.2881,0.1376 1.0839,0.8328 1.3635,1.1911 0.1413,0.181 0.3322,0.4088 0.4242,0.5062 0.092,0.097 0.2964,0.4407 0.4542,0.7628 0.1578,0.3221 0.3381,0.6791 0.4006,0.7933 0.062,0.1142 0.1426,0.3249 0.178,0.4681 0.035,0.1433 0.083,0.3253 0.1051,0.4045 0.097,0.3429 0.1777,0.8284 0.2182,1.3124 0.049,0.5801 0.021,0.5551 0.6984,0.6323 0.2318,0.026 0.6045,0.1119 0.8282,0.1899 0.2238,0.078 0.4717,0.1615 0.5509,0.1854 0.079,0.024 0.2213,0.1032 0.3158,0.1761 0.094,0.073 0.1984,0.1326 0.2311,0.1326 0.097,0 1.2907,0.9226 1.6135,1.2475 0.8213,0.8264 1.6574,2.2118 1.7464,2.8935 0.021,0.1584 0.061,0.3205 0.091,0.3601 0.029,0.04 0.079,0.2016 0.1107,0.3601 0.064,0.3198 0.079,0.3795 0.105,0.4321 0.035,0.071 0.046,0.1522 0.1,0.7922 0.085,1.0076 -0.1197,2.1624 -0.5612,3.1606 -0.2299,0.5197 -0.2308,0.5749 -0.012,0.7182 0.3065,0.2008 1.6129,1.5483 1.6662,1.7186 0.028,0.09 0.1397,0.2937 0.2477,0.4521 0.3578,0.5251 0.6586,1.2293 0.8766,2.0525 0.106,0.4001 0.1421,0.7621 0.1394,1.3961 -0.01,1.403 -0.1532,2.2255 -0.5585,3.1184 -0.093,0.2054 -0.1695,0.3872 -0.1695,0.4039 0,0.017 -0.1913,0.3185 -0.4252,0.6707 -0.3932,0.5922 -0.9593,1.1972 -1.6056,1.7159 l -0.2632,0.2113 0.1469,0.288 c 0.2471,0.4844 0.4932,1.1954 0.5994,1.7319 0.1913,0.967 0.062,2.7157 -0.266,3.6071 -0.098,0.2661 -0.4811,1.1131 -0.57,1.2603 -0.036,0.059 -0.095,0.1773 -0.1322,0.262 -0.058,0.1327 -0.8228,1.0483 -1.265,1.514 -0.1627,0.1713 -0.9908,0.7157 -1.5028,0.9879 -0.5407,0.2876 -1.9936,0.693 -2.4832,0.693 -0.3486,0 -0.3254,-0.045 -0.4424,0.8571 -0.078,0.6042 -0.2511,1.2887 -0.4291,1.6995 -0.034,0.079 -0.1109,0.2747 -0.1702,0.4344 -0.1353,0.3641 -0.8175,1.3508 -1.1802,1.7068 -0.7779,0.7635 -1.6132,1.4154 -1.8221,1.422 -0.059,0 -0.2539,0.088 -0.4321,0.191 -0.3582,0.2073 -1.2645,0.5388 -1.3204,0.4829 -0.019,-0.019 -0.1234,0.022 -0.2308,0.093 -0.1642,0.1075 -0.3866,0.1308 -1.3926,0.1456 -1.0859,0.016 -1.2608,7e-4 -1.88,-0.1645 -0.3755,-0.1003 -0.7379,-0.2118 -0.8055,-0.248 -0.2578,-0.138 -0.3811,-0.073 -0.5236,0.2767 -0.162,0.3974 -0.6702,1.17 -0.7695,1.17 -0.037,0 -0.091,0.061 -0.1197,0.1347 -0.054,0.1411 -0.5629,0.7295 -0.6307,0.7295 -0.043,0 -0.1854,0.1122 -0.3787,0.2976 -0.292,0.28 -1.853,1.1428 -2.0675,1.1428 -0.062,0 -0.1844,0.046 -0.2722,0.102 -0.088,0.056 -0.3863,0.154 -0.6636,0.2176 -0.2773,0.064 -0.6014,0.1453 -0.7202,0.1816 -0.1188,0.036 -0.388,0.084 -0.5981,0.106 -0.2102,0.022 -0.4542,0.058 -0.5423,0.08 -0.088,0.022 -0.1757,0.025 -0.1946,0.01 z"
       id="path45" /><path
       id="path3-0-0-1"
       d="m 0,0 c -4.643,0 -14.315,0.129 -14.315,10.575 0,7.222 3.998,12.123 7.093,15.218 l 42.558,42.558 c 0.774,0.774 1.548,1.547 1.548,2.579 0,0.645 -0.645,1.29 -2.451,1.29 h -45.008 v 8.231 c 0,5.425 4.398,9.824 9.824,9.824 h 57.624 c 5.546,0 11.349,-1.935 11.349,-10.704 0,-7.222 -3.095,-10.318 -6.449,-13.67 L 17.668,21.408 c -0.645,-0.645 -1.29,-1.161 -1.29,-2.063 0,-0.903 0.387,-1.29 1.548,-1.29 H 57.01 c 5.551,0 10.051,-4.5 10.051,-10.051 V 0 Z"
       style="fill:#ffffff;fill-opacity:1;fill-rule:nonzero;stroke:none"
       transform="matrix(0.37209864,0,0,-0.37209864,1021.176,3112.4678)"
       clip-path="url(#clipPath4-1-8-57-7-7)" /></g></svg>
